<svg xmlns="http://www.w3.org/2000/svg" width="1401" height="264" fill="none"><path fill="#000" d="m739.766 64.452-11.796 2.216a41.49 41.49 0 0 0-32.782 31.998l-23.527 110.396h40.733l27.372-144.675"/><path fill="#000" d="M866.329 169.179c-21.115 0-33.693-13.686-33.693-37.407 0-23.722 12.252-51.093 34.085-82.178v-9.971L743.806 25.546C742.698 10.753 731.619 0 714.609 0s-28.154 11.144-28.154 27.436c0 1.173 0 2.281.196 3.389 1.368 13.23 11.535 23.852 24.309 27.501 6.973 2.02 17.335 4.627 28.806 6.126l68.104 8.863c-11.47 21.832-17.792 43.273-17.792 63.279 0 45.163 25.548 72.534 72.537 72.534h11.144v-39.949zM41.45 20.659H0v188.729h41.45zm1359.55 0h-41.45v188.729H1401zm-441.148 0h-41.45v188.729h41.45zm-567.778 84.654v104.141h-41.515V102.967c0-23.852-19.356-43.207-43.209-43.207a43.1 43.1 0 0 0-30.565 12.643 43.1 43.1 0 0 0-12.644 30.564v106.487h-41.514V102.967c0-23.852-19.356-43.207-43.209-43.207a43.1 43.1 0 0 0-30.566 12.643 43.1 43.1 0 0 0-12.643 30.564v106.487h-41.45V105.313c0-46.726 37.931-84.654 84.724-84.654 23.397 0 44.513 9.514 59.828 24.83a87 87 0 0 1 4.106 4.43c15.511-17.92 38.451-29.26 63.999-29.26 23.331 0 44.512 9.514 59.827 24.83 15.381 15.314 24.831 36.429 24.831 59.824m914.166 0v104.141h-41.51V102.967c0-23.852-19.36-43.207-43.21-43.207a43.1 43.1 0 0 0-30.57 12.643 43.1 43.1 0 0 0-12.64 30.564v106.487h-41.52V102.967c0-23.852-19.35-43.207-43.21-43.207a43.1 43.1 0 0 0-30.56 12.643 43.1 43.1 0 0 0-12.64 30.564v106.487h-41.45V105.313c0-46.726 37.93-84.654 84.72-84.654 23.4 0 44.51 9.514 59.83 24.83a87 87 0 0 1 4.1 4.43c15.51-17.92 38.45-29.26 64-29.26 23.33 0 44.51 9.514 59.83 24.83 15.38 15.314 24.83 36.429 24.83 59.824M541.318 19.225c-52.985 0-95.933 42.946-95.933 95.994 0 .977 0 2.02.065 2.998 0-.131-.065-.261-.065-.391V264h41.449v-69.796c15.446 10.688 34.215 16.944 54.484 16.944 53.05 0 95.998-42.947 95.998-95.929s-42.948-95.994-95.998-95.994m0 155.363c-32.782 0-59.372-26.589-59.372-59.369s26.59-59.434 59.372-59.434 59.437 26.589 59.437 59.434-26.591 59.369-59.437 59.369"/></svg>